<svg xmlns="http://www.w3.org/2000/svg" viewBox="0 0 64 64" width="64" height="64">
  <!-- Body -->
  <ellipse cx="32" cy="42" rx="18" ry="14" fill="#6B5B4F" stroke="#4A3F37" stroke-width="1.5"/>
  <!-- Tail -->
  <path d="M14 40 Q8 38 6 42 Q8 46 14 44" fill="#2A2520" stroke="#1A1815" stroke-width="1.5"/>
  <!-- Wing -->
  <ellipse cx="28" cy="40" rx="10" ry="8" fill="#5A4D42" stroke="#4A3F37" stroke-width="1"/>
  <!-- Neck -->
  <path d="M44 38 Q52 32 50 20 Q48 14 46 12" fill="none" stroke="#1A1815" stroke-width="10" stroke-linecap="round"/>
  <path d="M44 38 Q52 32 50 20 Q48 14 46 12" fill="none" stroke="#0D0D0D" stroke-width="1.5" stroke-linecap="round"/>
  <!-- Head -->
  <ellipse cx="44" cy="12" rx="8" ry="7" fill="#1A1815" stroke="#0D0D0D" stroke-width="1.5"/>
  <!-- White chin strap -->
  <path d="M38 16 Q44 20 50 16" fill="none" stroke="#F5F5F5" stroke-width="3" stroke-linecap="round"/>
  <!-- Beak -->
  <path d="M52 12 L60 10 L60 14 Z" fill="#2A2520" stroke="#1A1815" stroke-width="1"/>
  <!-- Eye -->
  <circle cx="46" cy="10" r="2" fill="#1A1A1A"/>
  <circle cx="46.5" cy="9.5" r="0.8" fill="#FFFFFF"/>
  <!-- Legs -->
  <line x1="26" y1="54" x2="26" y2="62" stroke="#3D3D3D" stroke-width="2.5" stroke-linecap="round"/>
  <line x1="36" y1="54" x2="36" y2="62" stroke="#3D3D3D" stroke-width="2.5" stroke-linecap="round"/>
  <!-- Feet -->
  <path d="M22 62 L26 60 L30 62" stroke="#3D3D3D" stroke-width="2" fill="none" stroke-linecap="round"/>
  <path d="M32 62 L36 60 L40 62" stroke="#3D3D3D" stroke-width="2" fill="none" stroke-linecap="round"/>
</svg>