<svg xmlns="http://www.w3.org/2000/svg" viewBox="0 0 64 70" width="64" height="70">
  <!-- Body -->
  <ellipse cx="30" cy="48" rx="16" ry="13" fill="#FFFFFF" stroke="#D8D8D8" stroke-width="1.5"/>
  <!-- Tail -->
  <path d="M14 46 Q8 44 6 48 Q8 52 14 50" fill="#FFFFFF" stroke="#D8D8D8" stroke-width="1.5"/>
  <!-- Wing -->
  <ellipse cx="26" cy="46" rx="9" ry="7" fill="#F0F0F0" stroke="#D8D8D8" stroke-width="1"/>
  <!-- Neck (tall) -->
  <path d="M42 44 Q54 36 52 16 Q50 8 47 5" fill="none" stroke="#FFFFFF" stroke-width="9" stroke-linecap="round"/>
  <path d="M42 44 Q54 36 52 16 Q50 8 47 5" fill="none" stroke="#D8D8D8" stroke-width="1.5" stroke-linecap="round"/>
  <!-- Head -->
  <ellipse cx="45" cy="7" rx="7" ry="6" fill="#FFFFFF" stroke="#D8D8D8" stroke-width="1.5"/>
  <!-- Beak -->
  <path d="M52 7 L60 5 L60 9 Z" fill="#E8943A" stroke="#C67A28" stroke-width="1"/>
  <!-- Blue eye -->
  <circle cx="47" cy="5" r="2" fill="#4A7DB8"/>
  <circle cx="47" cy="5" r="1" fill="#1A1A1A"/>
  <circle cx="47.5" cy="4.5" r="0.6" fill="#FFFFFF"/>
  <!-- Legs -->
  <line x1="24" y1="59" x2="24" y2="68" stroke="#E8943A" stroke-width="2.5" stroke-linecap="round"/>
  <line x1="34" y1="59" x2="34" y2="68" stroke="#E8943A" stroke-width="2.5" stroke-linecap="round"/>
  <!-- Feet -->
  <path d="M20 68 L24 66 L28 68" stroke="#E8943A" stroke-width="2" fill="none" stroke-linecap="round"/>
  <path d="M30 68 L34 66 L38 68" stroke="#E8943A" stroke-width="2" fill="none" stroke-linecap="round"/>
</svg>