<svg xmlns="http://www.w3.org/2000/svg" viewBox="0 0 64 64" width="64" height="64">
  <!-- Muffin wrapper -->
  <path d="M12 38 L18 58 L46 58 L52 38 Z" fill="#8B5A2B" stroke="#5D3A1A" stroke-width="1.5"/>
  <!-- Wrapper lines -->
  <line x1="20" y1="38" x2="22" y2="58" stroke="#5D3A1A" stroke-width="1"/>
  <line x1="28" y1="38" x2="28" y2="58" stroke="#5D3A1A" stroke-width="1"/>
  <line x1="36" y1="38" x2="36" y2="58" stroke="#5D3A1A" stroke-width="1"/>
  <line x1="44" y1="38" x2="42" y2="58" stroke="#5D3A1A" stroke-width="1"/>
  <!-- Muffin top -->
  <ellipse cx="32" cy="38" rx="22" ry="8" fill="#D4A054"/>
  <path d="M10 38 Q16 20 32 18 Q48 20 54 38" fill="#E8B86D" stroke="#C4954A" stroke-width="1.5"/>
  <!-- Muffin top bumps -->
  <circle cx="20" cy="28" r="8" fill="#E8B86D"/>
  <circle cx="32" cy="24" r="9" fill="#E8B86D"/>
  <circle cx="44" cy="28" r="8" fill="#E8B86D"/>
  <!-- Chocolate chips -->
  <ellipse cx="24" cy="30" rx="3" ry="2.5" fill="#3D2314"/>
  <ellipse cx="38" cy="28" rx="3" ry="2.5" fill="#3D2314"/>
  <ellipse cx="32" cy="36" rx="2.5" ry="2" fill="#3D2314"/>
</svg>