<svg xmlns="http://www.w3.org/2000/svg" viewBox="0 0 64 68" width="64" height="68">
  <path d="M8 40 L12 60 L48 60 L52 40 Z" fill="#8B5A2B" stroke="#5D3A1A" stroke-width="1.5"/>
  <line x1="18" y1="40" x2="19" y2="60" stroke="#5D3A1A" stroke-width="1"/>
  <line x1="30" y1="40" x2="30" y2="60" stroke="#5D3A1A" stroke-width="1"/>
  <line x1="42" y1="40" x2="41" y2="60" stroke="#5D3A1A" stroke-width="1"/>
  <ellipse cx="30" cy="40" rx="24" ry="8" fill="#D4A054"/>
  <path d="M6 40 Q14 14 30 12 Q46 14 54 40" fill="#E8C87D" stroke="#C4954A" stroke-width="1.5"/>
  <circle cx="18" cy="26" r="9" fill="#E8C87D"/>
  <circle cx="30" cy="20" r="10" fill="#E8C87D"/>
  <circle cx="42" cy="26" r="9" fill="#E8C87D"/>
  <circle cx="22" cy="30" r="4" fill="#4A5BA8"/>
  <circle cx="36" cy="26" r="4" fill="#4A5BA8"/>
  <circle cx="28" cy="38" r="3.5" fill="#4A5BA8"/>
  <circle cx="22" cy="30" r="1.5" fill="#6B7DC4" opacity="0.6"/>
  <circle cx="36" cy="26" r="1.5" fill="#6B7DC4" opacity="0.6"/>
</svg>